<svg width="318" height="57" viewBox="0 0 318 57" fill="none" xmlns="http://www.w3.org/2000/svg">
<path d="M166.773 23.9609V44H159.461V18.6406H166.328L166.773 23.9609ZM165.836 30.4297L163.984 30.4766C163.984 28.6953 164.195 27.0625 164.617 25.5781C165.055 24.0781 165.688 22.7734 166.516 21.6641C167.344 20.5547 168.367 19.6953 169.586 19.0859C170.82 18.4766 172.242 18.1719 173.852 18.1719C174.977 18.1719 176 18.3438 176.922 18.6875C177.844 19.0156 178.633 19.5391 179.289 20.2578C179.961 20.9609 180.477 21.8828 180.836 23.0234C181.195 24.1484 181.375 25.5 181.375 27.0781V44H174.062V27.9688C174.062 26.8438 173.922 25.9922 173.641 25.4141C173.375 24.8203 172.984 24.4141 172.469 24.1953C171.953 23.9766 171.336 23.8672 170.617 23.8672C169.836 23.8672 169.141 24.0391 168.531 24.3828C167.938 24.7109 167.438 25.1719 167.031 25.7656C166.625 26.3594 166.32 27.0547 166.117 27.8516C165.93 28.6484 165.836 29.5078 165.836 30.4297ZM180.625 30.0547L178.305 30.2422C178.305 28.5234 178.508 26.9297 178.914 25.4609C179.32 23.9922 179.93 22.7188 180.742 21.6406C181.555 20.5469 182.562 19.6953 183.766 19.0859C184.984 18.4766 186.398 18.1719 188.008 18.1719C189.195 18.1719 190.273 18.3438 191.242 18.6875C192.227 19.0312 193.07 19.5859 193.773 20.3516C194.492 21.1172 195.047 22.125 195.438 23.375C195.828 24.6094 196.023 26.125 196.023 27.9219V44H188.664V27.9219C188.664 26.8125 188.523 25.9688 188.242 25.3906C187.977 24.8125 187.586 24.4141 187.07 24.1953C186.57 23.9766 185.969 23.8672 185.266 23.8672C184.484 23.8672 183.805 24.0312 183.227 24.3594C182.648 24.6719 182.164 25.1094 181.773 25.6719C181.383 26.2188 181.094 26.8672 180.906 27.6172C180.719 28.3672 180.625 29.1797 180.625 30.0547Z" fill="white"/>
<path d="M240.32 38.8203L245.617 18.6406H253.305L244.891 44H240.273L240.32 38.8203ZM236.898 18.6406L242.172 38.8438L242.219 44H237.602L229.188 18.6406H236.898ZM263.711 18.6406V44H256.375V18.6406H263.711ZM255.93 12.0781C255.93 11.0156 256.305 10.1484 257.055 9.47656C257.805 8.78906 258.789 8.44531 260.008 8.44531C261.227 8.44531 262.211 8.78906 262.961 9.47656C263.727 10.1484 264.109 11.0156 264.109 12.0781C264.109 13.125 263.727 13.9922 262.961 14.6797C262.211 15.3516 261.227 15.6875 260.008 15.6875C258.789 15.6875 257.805 15.3516 257.055 14.6797C256.305 13.9922 255.93 13.125 255.93 12.0781ZM280.938 44.4688C278.922 44.4688 277.117 44.1484 275.523 43.5078C273.93 42.8672 272.578 41.9844 271.469 40.8594C270.375 39.7188 269.539 38.4062 268.961 36.9219C268.383 35.4375 268.094 33.8516 268.094 32.1641V31.2734C268.094 29.3828 268.359 27.6406 268.891 26.0469C269.422 24.4531 270.195 23.0703 271.211 21.8984C272.242 20.7109 273.508 19.7969 275.008 19.1562C276.508 18.5 278.219 18.1719 280.141 18.1719C281.938 18.1719 283.539 18.4688 284.945 19.0625C286.352 19.6406 287.539 20.4766 288.508 21.5703C289.477 22.6484 290.211 23.9531 290.711 25.4844C291.227 27 291.484 28.7031 291.484 30.5938V33.5938H271.047V28.8828H284.312V28.3203C284.312 27.4297 284.148 26.6484 283.82 25.9766C283.508 25.3047 283.039 24.7891 282.414 24.4297C281.805 24.0547 281.031 23.8672 280.094 23.8672C279.203 23.8672 278.461 24.0547 277.867 24.4297C277.273 24.8047 276.797 25.3359 276.438 26.0234C276.094 26.6953 275.844 27.4844 275.688 28.3906C275.531 29.2812 275.453 30.2422 275.453 31.2734V32.1641C275.453 33.1484 275.586 34.0469 275.852 34.8594C276.117 35.6719 276.508 36.3672 277.023 36.9453C277.539 37.5234 278.164 37.9766 278.898 38.3047C279.633 38.6328 280.469 38.7969 281.406 38.7969C282.562 38.7969 283.664 38.5781 284.711 38.1406C285.758 37.6875 286.664 36.9844 287.43 36.0312L290.852 39.9453C290.336 40.6953 289.609 41.4219 288.672 42.125C287.75 42.8125 286.641 43.375 285.344 43.8125C284.047 44.25 282.578 44.4688 280.938 44.4688ZM308.547 36.9453C308.547 36.4766 308.398 36.0625 308.102 35.7031C307.82 35.3438 307.305 35.0156 306.555 34.7188C305.82 34.4219 304.781 34.125 303.438 33.8281C302.172 33.5625 300.992 33.2188 299.898 32.7969C298.805 32.3594 297.852 31.8359 297.039 31.2266C296.227 30.6016 295.594 29.8672 295.141 29.0234C294.688 28.1641 294.461 27.1875 294.461 26.0938C294.461 25.0312 294.688 24.0234 295.141 23.0703C295.609 22.1172 296.281 21.2734 297.156 20.5391C298.047 19.8047 299.125 19.2266 300.391 18.8047C301.672 18.3828 303.125 18.1719 304.75 18.1719C306.984 18.1719 308.914 18.5234 310.539 19.2266C312.164 19.9141 313.414 20.8828 314.289 22.1328C315.164 23.3672 315.602 24.7812 315.602 26.375H308.289C308.289 25.7188 308.164 25.1484 307.914 24.6641C307.664 24.1797 307.281 23.8047 306.766 23.5391C306.25 23.2578 305.57 23.1172 304.727 23.1172C304.07 23.1172 303.492 23.2344 302.992 23.4688C302.508 23.6875 302.125 23.9922 301.844 24.3828C301.578 24.7734 301.445 25.2266 301.445 25.7422C301.445 26.1016 301.523 26.4297 301.68 26.7266C301.852 27.0078 302.109 27.2734 302.453 27.5234C302.812 27.7578 303.273 27.9688 303.836 28.1562C304.414 28.3438 305.117 28.5234 305.945 28.6953C307.711 29.0234 309.32 29.4844 310.773 30.0781C312.242 30.6719 313.414 31.4922 314.289 32.5391C315.18 33.5859 315.625 34.9688 315.625 36.6875C315.625 37.8125 315.367 38.8438 314.852 39.7812C314.352 40.7188 313.625 41.5391 312.672 42.2422C311.719 42.9453 310.578 43.4922 309.25 43.8828C307.922 44.2734 306.422 44.4688 304.75 44.4688C302.359 44.4688 300.336 44.0391 298.68 43.1797C297.023 42.3203 295.773 41.2422 294.93 39.9453C294.102 38.6328 293.688 37.2891 293.688 35.9141H300.555C300.586 36.7578 300.797 37.4453 301.188 37.9766C301.594 38.5078 302.117 38.8984 302.758 39.1484C303.398 39.3828 304.117 39.5 304.914 39.5C305.711 39.5 306.375 39.3906 306.906 39.1719C307.438 38.9531 307.844 38.6562 308.125 38.2812C308.406 37.8906 308.547 37.4453 308.547 36.9453Z" fill="white"/>
<path d="M15.9375 36.9453C15.9375 36.4766 15.7891 36.0625 15.4922 35.7031C15.2109 35.3438 14.6953 35.0156 13.9453 34.7188C13.2109 34.4219 12.1719 34.125 10.8281 33.8281C9.5625 33.5625 8.38281 33.2188 7.28906 32.7969C6.19531 32.3594 5.24219 31.8359 4.42969 31.2266C3.61719 30.6016 2.98438 29.8672 2.53125 29.0234C2.07812 28.1641 1.85156 27.1875 1.85156 26.0938C1.85156 25.0312 2.07812 24.0234 2.53125 23.0703C3 22.1172 3.67188 21.2734 4.54688 20.5391C5.4375 19.8047 6.51562 19.2266 7.78125 18.8047C9.0625 18.3828 10.5156 18.1719 12.1406 18.1719C14.375 18.1719 16.3047 18.5234 17.9297 19.2266C19.5547 19.9141 20.8047 20.8828 21.6797 22.1328C22.5547 23.3672 22.9922 24.7812 22.9922 26.375H15.6797C15.6797 25.7188 15.5547 25.1484 15.3047 24.6641C15.0547 24.1797 14.6719 23.8047 14.1562 23.5391C13.6406 23.2578 12.9609 23.1172 12.1172 23.1172C11.4609 23.1172 10.8828 23.2344 10.3828 23.4688C9.89844 23.6875 9.51562 23.9922 9.23438 24.3828C8.96875 24.7734 8.83594 25.2266 8.83594 25.7422C8.83594 26.1016 8.91406 26.4297 9.07031 26.7266C9.24219 27.0078 9.5 27.2734 9.84375 27.5234C10.2031 27.7578 10.6641 27.9688 11.2266 28.1562C11.8047 28.3438 12.5078 28.5234 13.3359 28.6953C15.1016 29.0234 16.7109 29.4844 18.1641 30.0781C19.6328 30.6719 20.8047 31.4922 21.6797 32.5391C22.5703 33.5859 23.0156 34.9688 23.0156 36.6875C23.0156 37.8125 22.7578 38.8438 22.2422 39.7812C21.7422 40.7188 21.0156 41.5391 20.0625 42.2422C19.1094 42.9453 17.9688 43.4922 16.6406 43.8828C15.3125 44.2734 13.8125 44.4688 12.1406 44.4688C9.75 44.4688 7.72656 44.0391 6.07031 43.1797C4.41406 42.3203 3.16406 41.2422 2.32031 39.9453C1.49219 38.6328 1.07812 37.2891 1.07812 35.9141H7.94531C7.97656 36.7578 8.1875 37.4453 8.57812 37.9766C8.98438 38.5078 9.50781 38.8984 10.1484 39.1484C10.7891 39.3828 11.5078 39.5 12.3047 39.5C13.1016 39.5 13.7656 39.3906 14.2969 39.1719C14.8281 38.9531 15.2344 38.6562 15.5156 38.2812C15.7969 37.8906 15.9375 37.4453 15.9375 36.9453ZM39.0469 44.4688C37.0312 44.4688 35.2266 44.1484 33.6328 43.5078C32.0391 42.8672 30.6875 41.9844 29.5781 40.8594C28.4844 39.7188 27.6484 38.4062 27.0703 36.9219C26.4922 35.4375 26.2031 33.8516 26.2031 32.1641V31.2734C26.2031 29.3828 26.4688 27.6406 27 26.0469C27.5312 24.4531 28.3047 23.0703 29.3203 21.8984C30.3516 20.7109 31.6172 19.7969 33.1172 19.1562C34.6172 18.5 36.3281 18.1719 38.25 18.1719C40.0469 18.1719 41.6484 18.4688 43.0547 19.0625C44.4609 19.6406 45.6484 20.4766 46.6172 21.5703C47.5859 22.6484 48.3203 23.9531 48.8203 25.4844C49.3359 27 49.5938 28.7031 49.5938 30.5938V33.5938H29.1562V28.8828H42.4219V28.3203C42.4219 27.4297 42.2578 26.6484 41.9297 25.9766C41.6172 25.3047 41.1484 24.7891 40.5234 24.4297C39.9141 24.0547 39.1406 23.8672 38.2031 23.8672C37.3125 23.8672 36.5703 24.0547 35.9766 24.4297C35.3828 24.8047 34.9062 25.3359 34.5469 26.0234C34.2031 26.6953 33.9531 27.4844 33.7969 28.3906C33.6406 29.2812 33.5625 30.2422 33.5625 31.2734V32.1641C33.5625 33.1484 33.6953 34.0469 33.9609 34.8594C34.2266 35.6719 34.6172 36.3672 35.1328 36.9453C35.6484 37.5234 36.2734 37.9766 37.0078 38.3047C37.7422 38.6328 38.5781 38.7969 39.5156 38.7969C40.6719 38.7969 41.7734 38.5781 42.8203 38.1406C43.8672 37.6875 44.7734 36.9844 45.5391 36.0312L48.9609 39.9453C48.4453 40.6953 47.7188 41.4219 46.7812 42.125C45.8594 42.8125 44.75 43.375 43.4531 43.8125C42.1562 44.25 40.6875 44.4688 39.0469 44.4688ZM66.5859 37.9531V27.0781C66.5859 26.3125 66.4688 25.6562 66.2344 25.1094C66 24.5625 65.6328 24.1328 65.1328 23.8203C64.6328 23.5078 63.9844 23.3516 63.1875 23.3516C62.5156 23.3516 61.9297 23.4688 61.4297 23.7031C60.9453 23.9375 60.5703 24.2734 60.3047 24.7109C60.0547 25.1484 59.9297 25.6875 59.9297 26.3281H52.6172C52.6172 25.1875 52.875 24.125 53.3906 23.1406C53.9062 22.1562 54.6406 21.2891 55.5938 20.5391C56.5625 19.7891 57.7188 19.2109 59.0625 18.8047C60.4062 18.3828 61.9141 18.1719 63.5859 18.1719C65.5703 18.1719 67.3359 18.5078 68.8828 19.1797C70.4453 19.8359 71.6797 20.8281 72.5859 22.1562C73.4922 23.4688 73.9453 25.125 73.9453 27.125V37.7422C73.9453 39.2734 74.0312 40.4766 74.2031 41.3516C74.3906 42.2109 74.6562 42.9609 75 43.6016V44H67.6172C67.2734 43.2656 67.0156 42.3594 66.8438 41.2812C66.6719 40.1875 66.5859 39.0781 66.5859 37.9531ZM67.5 28.5312L67.5469 32.5625H63.9141C63.1016 32.5625 62.3984 32.6641 61.8047 32.8672C61.2266 33.0703 60.7578 33.3516 60.3984 33.7109C60.0391 34.0547 59.7734 34.4609 59.6016 34.9297C59.4453 35.3828 59.3672 35.8828 59.3672 36.4297C59.3672 36.9453 59.4922 37.4141 59.7422 37.8359C59.9922 38.2422 60.3359 38.5625 60.7734 38.7969C61.2109 39.0312 61.7188 39.1484 62.2969 39.1484C63.25 39.1484 64.0625 38.9609 64.7344 38.5859C65.4219 38.2109 65.9531 37.7578 66.3281 37.2266C66.7031 36.6797 66.8906 36.1719 66.8906 35.7031L68.6484 38.75C68.3672 39.375 68.0234 40.0234 67.6172 40.6953C67.2109 41.3516 66.6953 41.9688 66.0703 42.5469C65.4453 43.1094 64.6875 43.5703 63.7969 43.9297C62.9219 44.2891 61.8672 44.4688 60.6328 44.4688C59.0391 44.4688 57.5938 44.1484 56.2969 43.5078C55 42.8516 53.9609 41.9531 53.1797 40.8125C52.4141 39.6719 52.0312 38.3594 52.0312 36.875C52.0312 35.5469 52.2734 34.3672 52.7578 33.3359C53.2422 32.3047 53.9688 31.4297 54.9375 30.7109C55.9219 29.9922 57.1562 29.4531 58.6406 29.0938C60.125 28.7188 61.8594 28.5312 63.8438 28.5312H67.5ZM86.0859 24.5469V44H78.7734V18.6406H85.6406L86.0859 24.5469ZM93.6562 18.4531L93.5391 25.2734C93.2266 25.2266 92.8203 25.1875 92.3203 25.1562C91.8203 25.1094 91.3906 25.0859 91.0312 25.0859C90.0938 25.0859 89.2812 25.2031 88.5938 25.4375C87.9219 25.6562 87.3594 25.9844 86.9062 26.4219C86.4688 26.8594 86.1406 27.4062 85.9219 28.0625C85.7031 28.7031 85.5938 29.4453 85.5938 30.2891L84.2109 29.6094C84.2109 27.9375 84.375 26.4062 84.7031 25.0156C85.0312 23.625 85.5078 22.4219 86.1328 21.4062C86.7578 20.375 87.5234 19.5781 88.4297 19.0156C89.3359 18.4531 90.3672 18.1719 91.5234 18.1719C91.8984 18.1719 92.2812 18.1953 92.6719 18.2422C93.0625 18.2891 93.3906 18.3594 93.6562 18.4531ZM106.781 38.7734C107.562 38.7734 108.242 38.625 108.82 38.3281C109.398 38.0312 109.844 37.6172 110.156 37.0859C110.484 36.5391 110.648 35.8828 110.648 35.1172H117.539C117.539 36.9609 117.062 38.5859 116.109 39.9922C115.172 41.3984 113.906 42.5 112.312 43.2969C110.719 44.0781 108.922 44.4688 106.922 44.4688C104.953 44.4688 103.234 44.1484 101.766 43.5078C100.297 42.8516 99.0703 41.9375 98.0859 40.7656C97.1016 39.5938 96.3594 38.2344 95.8594 36.6875C95.375 35.125 95.1328 33.4375 95.1328 31.625V31.0156C95.1328 29.2188 95.375 27.5391 95.8594 25.9766C96.3594 24.4141 97.1016 23.0469 98.0859 21.875C99.0703 20.7031 100.289 19.7969 101.742 19.1562C103.211 18.5 104.93 18.1719 106.898 18.1719C108.977 18.1719 110.812 18.5703 112.406 19.3672C114.016 20.1641 115.273 21.3125 116.18 22.8125C117.086 24.2969 117.539 26.0859 117.539 28.1797H110.648C110.648 27.3672 110.5 26.6406 110.203 26C109.922 25.3438 109.484 24.8281 108.891 24.4531C108.312 24.0625 107.594 23.8672 106.734 23.8672C105.844 23.8672 105.109 24.0625 104.531 24.4531C103.969 24.8281 103.539 25.3516 103.242 26.0234C102.945 26.6953 102.742 27.4609 102.633 28.3203C102.523 29.1641 102.469 30.0625 102.469 31.0156V31.625C102.469 32.5938 102.523 33.5156 102.633 34.3906C102.742 35.25 102.945 36.0078 103.242 36.6641C103.555 37.3203 103.992 37.8359 104.555 38.2109C105.117 38.5859 105.859 38.7734 106.781 38.7734ZM128.32 8V44H121.008V8H128.32ZM127.359 30.4297L125.531 30.4766C125.531 28.6953 125.75 27.0625 126.188 25.5781C126.641 24.0781 127.281 22.7734 128.109 21.6641C128.938 20.5547 129.93 19.6953 131.086 19.0859C132.258 18.4766 133.547 18.1719 134.953 18.1719C136.203 18.1719 137.344 18.3516 138.375 18.7109C139.406 19.0703 140.297 19.6406 141.047 20.4219C141.797 21.2031 142.375 22.2266 142.781 23.4922C143.188 24.7578 143.391 26.2969 143.391 28.1094V44H136.031V28.0625C136.031 26.9844 135.875 26.1406 135.562 25.5312C135.266 24.9219 134.828 24.4922 134.25 24.2422C133.688 23.9922 133 23.8672 132.188 23.8672C131.234 23.8672 130.445 24.0391 129.82 24.3828C129.195 24.7109 128.703 25.1719 128.344 25.7656C127.984 26.3594 127.727 27.0547 127.57 27.8516C127.43 28.6484 127.359 29.5078 127.359 30.4297Z" fill="white"/>
<path d="M148.57 40.5312C148.57 39.4688 148.945 38.5781 149.695 37.8594C150.461 37.1406 151.453 36.7812 152.672 36.7812C153.906 36.7812 154.891 37.1406 155.625 37.8594C156.375 38.5781 156.75 39.4688 156.75 40.5312C156.75 41.5781 156.375 42.4609 155.625 43.1797C154.891 43.8984 153.906 44.2578 152.672 44.2578C151.453 44.2578 150.461 43.8984 149.695 43.1797C148.945 42.4609 148.57 41.5781 148.57 40.5312Z" fill="#E80202"/>
<path d="M227.588 42.1572H225.781L225.141 41.5397C227.382 38.9325 228.731 35.5477 228.731 31.8656C228.731 23.6552 222.076 17 213.866 17C205.655 17 199 23.6552 199 31.8656C199 40.076 205.655 46.7313 213.866 46.7313C217.548 46.7313 220.933 45.3819 223.54 43.1407L224.157 43.781V45.5878L235.592 57L239 53.5923L227.588 42.1572V42.1572ZM213.866 42.1572C208.171 42.1572 203.574 37.5603 203.574 31.8656C203.574 26.171 208.171 21.574 213.866 21.574C219.56 21.574 224.157 26.171 224.157 31.8656C224.157 37.5603 219.56 42.1572 213.866 42.1572Z" fill="#E80202"/>
</svg>
