<svg width="184" height="58" viewBox="0 0 184 58" fill="none" xmlns="http://www.w3.org/2000/svg">
<g filter="url(#filter0_i_3_26)">
<path d="M67.696 13.032V48H60.544V27.888C60.544 27.424 60.552 26.92 60.568 26.376C60.6 25.832 60.648 25.28 60.712 24.72L51.424 42.696C51.136 43.256 50.744 43.68 50.248 43.968C49.768 44.256 49.216 44.4 48.592 44.4H47.488C46.864 44.4 46.304 44.256 45.808 43.968C45.328 43.68 44.944 43.256 44.656 42.696L35.368 24.672C35.416 25.248 35.456 25.816 35.488 26.376C35.52 26.92 35.536 27.424 35.536 27.888V48H28.384V13.032H34.576C34.928 13.032 35.232 13.04 35.488 13.056C35.76 13.072 36 13.12 36.208 13.2C36.416 13.28 36.6 13.408 36.76 13.584C36.936 13.744 37.104 13.976 37.264 14.28L46.264 32.016C46.584 32.624 46.888 33.256 47.176 33.912C47.48 34.568 47.768 35.24 48.04 35.928C48.312 35.224 48.592 34.536 48.88 33.864C49.184 33.192 49.504 32.552 49.84 31.944L58.816 14.28C58.976 13.976 59.136 13.744 59.296 13.584C59.472 13.408 59.664 13.28 59.872 13.2C60.08 13.12 60.312 13.072 60.568 13.056C60.84 13.04 61.152 13.032 61.504 13.032H67.696ZM84.3201 22.728C86.2081 22.728 87.9281 23.024 89.4801 23.616C91.0321 24.208 92.3601 25.056 93.4641 26.16C94.5841 27.264 95.4481 28.608 96.0561 30.192C96.6801 31.76 96.9921 33.528 96.9921 35.496C96.9921 37.48 96.6801 39.272 96.0561 40.872C95.4481 42.456 94.5841 43.808 93.4641 44.928C92.3601 46.032 91.0321 46.888 89.4801 47.496C87.9281 48.088 86.2081 48.384 84.3201 48.384C82.4161 48.384 80.6801 48.088 79.1121 47.496C77.5601 46.888 76.2161 46.032 75.0801 44.928C73.9601 43.808 73.0881 42.456 72.4641 40.872C71.8561 39.272 71.5521 37.48 71.5521 35.496C71.5521 33.528 71.8561 31.76 72.4641 30.192C73.0881 28.608 73.9601 27.264 75.0801 26.16C76.2161 25.056 77.5601 24.208 79.1121 23.616C80.6801 23.024 82.4161 22.728 84.3201 22.728ZM84.3201 42.864C86.0321 42.864 87.2881 42.264 88.0881 41.064C88.9041 39.848 89.3121 38.008 89.3121 35.544C89.3121 33.08 88.9041 31.248 88.0881 30.048C87.2881 28.848 86.0321 28.248 84.3201 28.248C82.5601 28.248 81.2721 28.848 80.4561 30.048C79.6401 31.248 79.2321 33.08 79.2321 35.544C79.2321 38.008 79.6401 39.848 80.4561 41.064C81.2721 42.264 82.5601 42.864 84.3201 42.864ZM123.343 23.112L113.695 48H106.927L97.279 23.112H103.471C103.999 23.112 104.439 23.24 104.791 23.496C105.159 23.736 105.407 24.04 105.535 24.408L108.991 35.568C109.295 36.48 109.559 37.368 109.783 38.232C110.023 39.096 110.231 39.96 110.407 40.824C110.759 39.096 111.247 37.344 111.871 35.568L115.471 24.408C115.599 24.04 115.839 23.736 116.191 23.496C116.543 23.24 116.959 23.112 117.439 23.112H123.343ZM133.378 23.112V48H125.938V23.112H133.378ZM134.146 16.296C134.146 16.888 134.026 17.448 133.786 17.976C133.546 18.488 133.218 18.944 132.802 19.344C132.386 19.728 131.898 20.04 131.338 20.28C130.794 20.504 130.21 20.616 129.586 20.616C128.978 20.616 128.41 20.504 127.882 20.28C127.354 20.04 126.882 19.728 126.466 19.344C126.066 18.944 125.746 18.488 125.506 17.976C125.282 17.448 125.17 16.888 125.17 16.296C125.17 15.688 125.282 15.12 125.506 14.592C125.746 14.064 126.066 13.6 126.466 13.2C126.882 12.8 127.354 12.488 127.882 12.264C128.41 12.04 128.978 11.928 129.586 11.928C130.21 11.928 130.794 12.04 131.338 12.264C131.898 12.488 132.386 12.8 132.802 13.2C133.218 13.6 133.546 14.064 133.786 14.592C134.026 15.12 134.146 15.688 134.146 16.296ZM154.047 32.568C154.047 31.976 153.967 31.4 153.807 30.84C153.663 30.28 153.415 29.784 153.063 29.352C152.727 28.904 152.279 28.544 151.719 28.272C151.159 28 150.479 27.864 149.679 27.864C148.271 27.864 147.167 28.272 146.367 29.088C145.567 29.888 145.039 31.048 144.783 32.568H154.047ZM144.687 36.888C144.927 38.968 145.559 40.48 146.583 41.424C147.607 42.352 148.927 42.816 150.543 42.816C151.407 42.816 152.151 42.712 152.775 42.504C153.399 42.296 153.951 42.064 154.431 41.808C154.927 41.552 155.375 41.32 155.775 41.112C156.191 40.904 156.623 40.8 157.071 40.8C157.663 40.8 158.111 41.016 158.415 41.448L160.575 44.112C159.807 44.992 158.975 45.712 158.079 46.272C157.199 46.816 156.287 47.248 155.343 47.568C154.415 47.872 153.479 48.08 152.535 48.192C151.607 48.32 150.719 48.384 149.871 48.384C148.127 48.384 146.487 48.104 144.951 47.544C143.431 46.968 142.095 46.12 140.943 45C139.807 43.88 138.903 42.488 138.231 40.824C137.575 39.16 137.247 37.224 137.247 35.016C137.247 33.352 137.527 31.776 138.087 30.288C138.663 28.8 139.479 27.496 140.535 26.376C141.607 25.256 142.895 24.368 144.399 23.712C145.919 23.056 147.631 22.728 149.535 22.728C151.183 22.728 152.687 22.984 154.047 23.496C155.423 24.008 156.599 24.752 157.575 25.728C158.567 26.704 159.335 27.904 159.879 29.328C160.439 30.736 160.719 32.336 160.719 34.128C160.719 34.688 160.695 35.144 160.647 35.496C160.599 35.848 160.511 36.128 160.383 36.336C160.255 36.544 160.079 36.688 159.855 36.768C159.647 36.848 159.375 36.888 159.039 36.888H144.687ZM180.258 28.56C180.066 28.864 179.858 29.08 179.634 29.208C179.426 29.336 179.154 29.4 178.818 29.4C178.466 29.4 178.114 29.328 177.762 29.184C177.41 29.024 177.026 28.856 176.61 28.68C176.21 28.504 175.754 28.344 175.242 28.2C174.73 28.04 174.146 27.96 173.49 27.96C172.546 27.96 171.818 28.144 171.306 28.512C170.81 28.864 170.562 29.36 170.562 30C170.562 30.464 170.722 30.848 171.042 31.152C171.378 31.456 171.818 31.728 172.362 31.968C172.906 32.192 173.522 32.408 174.21 32.616C174.898 32.824 175.602 33.056 176.322 33.312C177.042 33.568 177.746 33.872 178.434 34.224C179.122 34.56 179.738 34.984 180.282 35.496C180.826 35.992 181.258 36.6 181.578 37.32C181.914 38.04 182.082 38.904 182.082 39.912C182.082 41.144 181.858 42.28 181.41 43.32C180.962 44.36 180.29 45.256 179.394 46.008C178.514 46.76 177.418 47.344 176.106 47.76C174.81 48.176 173.314 48.384 171.618 48.384C170.77 48.384 169.922 48.304 169.074 48.144C168.226 47.984 167.402 47.768 166.602 47.496C165.818 47.224 165.09 46.904 164.418 46.536C163.746 46.152 163.17 45.744 162.69 45.312L164.418 42.576C164.61 42.256 164.85 42.008 165.138 41.832C165.442 41.64 165.826 41.544 166.29 41.544C166.722 41.544 167.106 41.64 167.442 41.832C167.794 42.024 168.17 42.232 168.57 42.456C168.97 42.68 169.434 42.888 169.962 43.08C170.506 43.272 171.186 43.368 172.002 43.368C172.578 43.368 173.066 43.312 173.466 43.2C173.866 43.072 174.186 42.904 174.426 42.696C174.666 42.488 174.842 42.256 174.954 42C175.066 41.744 175.122 41.48 175.122 41.208C175.122 40.712 174.954 40.304 174.618 39.984C174.282 39.664 173.842 39.392 173.298 39.168C172.754 38.928 172.13 38.712 171.426 38.52C170.738 38.312 170.034 38.08 169.314 37.824C168.594 37.568 167.882 37.264 167.178 36.912C166.49 36.544 165.874 36.088 165.33 35.544C164.786 34.984 164.346 34.304 164.01 33.504C163.674 32.704 163.506 31.736 163.506 30.6C163.506 29.544 163.706 28.544 164.106 27.6C164.522 26.64 165.138 25.8 165.954 25.08C166.77 24.36 167.794 23.792 169.026 23.376C170.258 22.944 171.698 22.728 173.346 22.728C174.242 22.728 175.106 22.808 175.938 22.968C176.786 23.128 177.578 23.352 178.314 23.64C179.05 23.928 179.722 24.272 180.33 24.672C180.938 25.056 181.474 25.48 181.938 25.944L180.258 28.56Z" fill="#E80202"/>
</g>
<path d="M67.696 13.032H68.696V12.032H67.696V13.032ZM67.696 48V49H68.696V48H67.696ZM60.544 48H59.544V49H60.544V48ZM60.568 26.376L59.5697 26.3173L59.5689 26.3319L59.5684 26.3466L60.568 26.376ZM60.712 24.72L61.7055 24.8335L59.8236 24.261L60.712 24.72ZM51.424 42.696L50.5356 42.237L50.5347 42.2387L51.424 42.696ZM50.248 43.968L49.7459 43.1032L49.7397 43.1068L49.7335 43.1105L50.248 43.968ZM45.808 43.968L45.2935 44.8255L45.2997 44.8292L45.3059 44.8328L45.808 43.968ZM44.656 42.696L45.5453 42.2387L45.5449 42.2379L44.656 42.696ZM35.368 24.672L36.2569 24.2139L34.3715 24.755L35.368 24.672ZM35.488 26.376L34.4896 26.433L34.4897 26.4347L35.488 26.376ZM35.536 48V49H36.536V48H35.536ZM28.384 48H27.384V49H28.384V48ZM28.384 13.032V12.032H27.384V13.032H28.384ZM35.488 13.056L35.4256 14.0541L35.4293 14.0543L35.488 13.056ZM36.208 13.2L35.849 14.1333H35.849L36.208 13.2ZM36.76 13.584L36.0201 14.2567L36.0521 14.2919L36.0873 14.3239L36.76 13.584ZM37.264 14.28L38.1558 13.8275L38.1524 13.8208L38.1489 13.8143L37.264 14.28ZM46.264 32.016L45.3722 32.4685L45.3756 32.4752L45.3791 32.4817L46.264 32.016ZM47.176 33.912L46.2604 34.314L46.2644 34.3233L46.2687 34.3325L47.176 33.912ZM48.04 35.928L47.11 36.2957L48.0507 38.675L48.9728 36.2884L48.04 35.928ZM48.88 33.864L47.9689 33.4518L47.9648 33.4609L47.9609 33.4701L48.88 33.864ZM49.84 31.944L50.7152 32.4277L50.7236 32.4125L50.7315 32.397L49.84 31.944ZM58.816 14.28L57.9311 13.8143L57.9277 13.8206L57.9245 13.827L58.816 14.28ZM60.568 13.056L60.5093 12.0577L60.5056 12.0579L60.568 13.056ZM66.696 13.032V48H68.696V13.032H66.696ZM67.696 47H60.544V49H67.696V47ZM61.544 48V27.888H59.544V48H61.544ZM61.544 27.888C61.544 27.4353 61.5518 26.9412 61.5676 26.4054L59.5684 26.3466C59.5522 26.8988 59.544 27.4127 59.544 27.888H61.544ZM61.5663 26.4347C61.5972 25.9096 61.6435 25.3759 61.7055 24.8335L59.7185 24.6065C59.6525 25.1841 59.6028 25.7544 59.5697 26.3173L61.5663 26.4347ZM59.8236 24.261L50.5356 42.237L52.3124 43.155L61.6004 25.179L59.8236 24.261ZM50.5347 42.2387C50.3253 42.6459 50.0605 42.9205 49.7459 43.1032L50.7501 44.8328C51.4275 44.4395 51.9467 43.8661 52.3133 43.1533L50.5347 42.2387ZM49.7335 43.1105C49.4263 43.2949 49.0561 43.4 48.592 43.4V45.4C49.3759 45.4 50.1097 45.2171 50.7625 44.8255L49.7335 43.1105ZM48.592 43.4H47.488V45.4H48.592V43.4ZM47.488 43.4C47.0244 43.4 46.6404 43.2949 46.3101 43.1032L45.3059 44.8328C45.9677 45.2171 46.7036 45.4 47.488 45.4V43.4ZM46.3225 43.1105C46.0216 42.93 45.759 42.6542 45.5453 42.2387L43.7667 43.1533C44.129 43.8578 44.6344 44.43 45.2935 44.8255L46.3225 43.1105ZM45.5449 42.2379L36.2569 24.2139L34.4791 25.1301L43.7671 43.1541L45.5449 42.2379ZM34.3715 24.755C34.4188 25.3226 34.4581 25.882 34.4896 26.433L36.4864 26.319C36.4539 25.75 36.4132 25.1733 36.3645 24.589L34.3715 24.755ZM34.4897 26.4347C34.5208 26.9624 34.536 27.4466 34.536 27.888H36.536C36.536 27.4014 36.5192 26.8776 36.4863 26.3173L34.4897 26.4347ZM34.536 27.888V48H36.536V27.888H34.536ZM35.536 47H28.384V49H35.536V47ZM29.384 48V13.032H27.384V48H29.384ZM28.384 14.032H34.576V12.032H28.384V14.032ZM34.576 14.032C34.9142 14.032 35.1964 14.0397 35.4256 14.0541L35.5504 12.0579C35.2676 12.0403 34.9418 12.032 34.576 12.032V14.032ZM35.4293 14.0543C35.6205 14.0655 35.7558 14.0975 35.849 14.1333L36.567 12.2667C36.2442 12.1425 35.8995 12.0785 35.5467 12.0577L35.4293 14.0543ZM35.849 14.1333C35.9017 14.1536 35.9577 14.1881 36.0201 14.2567L37.4999 12.9113C37.2423 12.6279 36.9303 12.4064 36.567 12.2667L35.849 14.1333ZM36.0873 14.3239C36.148 14.3791 36.2513 14.503 36.3791 14.7457L38.1489 13.8143C37.9567 13.449 37.724 13.1089 37.4327 12.8441L36.0873 14.3239ZM36.3722 14.7325L45.3722 32.4685L47.1558 31.5635L38.1558 13.8275L36.3722 14.7325ZM45.3791 32.4817C45.6876 33.068 45.9814 33.6787 46.2604 34.314L48.0916 33.51C47.7946 32.8333 47.4804 32.18 47.1489 31.5503L45.3791 32.4817ZM46.2687 34.3325C46.5645 34.9707 46.8449 35.6251 47.11 36.2957L48.97 35.5603C48.6911 34.8549 48.3955 34.1653 48.0833 33.4915L46.2687 34.3325ZM48.9728 36.2884C49.2406 35.5953 49.516 34.9185 49.7991 34.2579L47.9609 33.4701C47.668 34.1535 47.3834 34.8527 47.1072 35.5676L48.9728 36.2884ZM49.7911 34.2762C50.0848 33.627 50.3929 33.011 50.7152 32.4277L48.9648 31.4603C48.6151 32.093 48.2832 32.757 47.9689 33.4518L49.7911 34.2762ZM50.7315 32.397L59.7075 14.733L57.9245 13.827L48.9485 31.491L50.7315 32.397ZM59.7009 14.7457C59.8357 14.4896 59.9408 14.3534 60.0031 14.2911L58.5889 12.8769C58.3312 13.1346 58.1163 13.4624 57.9311 13.8143L59.7009 14.7457ZM60.0031 14.2911C60.0918 14.2024 60.1681 14.1575 60.231 14.1333L59.513 12.2667C59.1599 12.4025 58.8522 12.6136 58.5889 12.8769L60.0031 14.2911ZM60.231 14.1333C60.3309 14.0949 60.4609 14.0646 60.6304 14.0541L60.5056 12.0579C60.1631 12.0794 59.8291 12.1451 59.513 12.2667L60.231 14.1333ZM60.6267 14.0543C60.8745 14.0397 61.1663 14.032 61.504 14.032V12.032C61.1377 12.032 60.8055 12.0403 60.5093 12.0577L60.6267 14.0543ZM61.504 14.032H67.696V12.032H61.504V14.032ZM89.4801 23.616L89.1237 24.5503H89.1237L89.4801 23.616ZM93.4641 26.16L92.757 26.8671L92.7621 26.8722L93.4641 26.16ZM96.0561 30.192L95.1225 30.5504L95.127 30.5618L96.0561 30.192ZM96.0561 40.872L95.1245 40.5086L95.1225 40.5137L96.0561 40.872ZM93.4641 44.928L94.1712 45.6351L93.4641 44.928ZM89.4801 47.496L89.8365 48.4304L89.8449 48.4271L89.4801 47.496ZM79.1121 47.496L78.7473 48.4272L78.7589 48.4315L79.1121 47.496ZM75.0801 44.928L74.373 45.6351L74.3781 45.6402L74.3832 45.6451L75.0801 44.928ZM72.4641 40.872L71.5293 41.2272L71.5337 41.2385L72.4641 40.872ZM72.4641 30.192L71.5337 29.8255L71.5318 29.8305L72.4641 30.192ZM75.0801 26.16L74.3832 25.4428L74.3781 25.4478L75.0801 26.16ZM79.1121 23.616L78.7589 22.6805L78.7557 22.6817L79.1121 23.616ZM88.0881 41.064L87.2578 40.5068L87.2561 40.5093L88.0881 41.064ZM88.0881 30.048L87.256 30.6027L87.2612 30.6103L88.0881 30.048ZM80.4561 41.064L79.6257 41.6212L79.6292 41.6263L80.4561 41.064ZM84.3201 23.728C86.1028 23.728 87.7 24.0073 89.1237 24.5503L89.8365 22.6817C88.1563 22.0407 86.3134 21.728 84.3201 21.728V23.728ZM89.1237 24.5503C90.5527 25.0954 91.7589 25.869 92.757 26.8671L94.1712 25.4529C92.9614 24.243 91.5116 23.3206 89.8365 22.6817L89.1237 24.5503ZM92.7621 26.8722C93.7728 27.8684 94.5615 29.0888 95.1225 30.5503L96.9897 29.8337C96.3347 28.1272 95.3955 26.6596 94.1661 25.4478L92.7621 26.8722ZM95.127 30.5618C95.6971 31.9943 95.9921 33.6339 95.9921 35.496H97.9921C97.9921 33.4221 97.6632 31.5257 96.9853 29.8222L95.127 30.5618ZM95.9921 35.496C95.9921 37.3747 95.6969 39.041 95.1245 40.5087L96.9878 41.2353C97.6634 39.503 97.9921 37.5853 97.9921 35.496H95.9921ZM95.1225 40.5137C94.5611 41.9763 93.771 43.2069 92.757 44.2209L94.1712 45.6351C95.3973 44.4091 96.3351 42.9357 96.9897 41.2303L95.1225 40.5137ZM92.757 44.2209C91.757 45.221 90.5478 46.0037 89.1154 46.5649L89.8449 48.4271C91.5164 47.7723 92.9633 46.843 94.1712 45.6351L92.757 44.2209ZM89.1237 46.5617C87.7 47.1047 86.1028 47.384 84.3201 47.384V49.384C86.3134 49.384 88.1563 49.0713 89.8365 48.4303L89.1237 46.5617ZM84.3201 47.384C82.5205 47.384 80.9062 47.1045 79.4653 46.5605L78.7589 48.4315C80.4541 49.0715 82.3117 49.384 84.3201 49.384V47.384ZM79.4769 46.5649C78.0422 46.0028 76.8127 45.2174 75.7771 44.2109L74.3832 45.6451C75.6195 46.8466 77.0781 47.7732 78.7474 48.4271L79.4769 46.5649ZM75.7872 44.2209C74.7713 43.205 73.9721 41.9715 73.3945 40.5055L71.5337 41.2385C72.2042 42.9405 73.1489 44.411 74.373 45.6351L75.7872 44.2209ZM73.3989 40.5168C72.8403 39.0468 72.5521 37.3776 72.5521 35.496H70.5521C70.5521 37.5824 70.8719 39.4972 71.5293 41.2272L73.3989 40.5168ZM72.5521 35.496C72.5521 33.631 72.8401 31.9884 73.3965 30.5535L71.5318 29.8305C70.8721 31.5316 70.5521 33.425 70.5521 35.496H72.5521ZM73.3945 30.5585C73.9716 29.0936 74.7695 27.8703 75.7821 26.8722L74.3781 25.4478C73.1507 26.6577 72.2046 28.1224 71.5337 29.8255L73.3945 30.5585ZM75.7771 26.8771C76.8108 25.8725 78.0373 25.0963 79.4685 24.5503L78.7557 22.6817C77.0829 23.3197 75.6215 24.2395 74.3832 25.4429L75.7771 26.8771ZM79.4653 24.5515C80.9062 24.0075 82.5205 23.728 84.3201 23.728V21.728C82.3117 21.728 80.4541 22.0405 78.7589 22.6805L79.4653 24.5515ZM84.3201 43.864C86.2944 43.864 87.898 43.152 88.9202 41.6187L87.2561 40.5093C86.6783 41.376 85.7699 41.864 84.3201 41.864V43.864ZM88.9185 41.6212C89.8974 40.1624 90.3121 38.0851 90.3121 35.544H88.3121C88.3121 37.9309 87.9108 39.5336 87.2578 40.5068L88.9185 41.6212ZM90.3121 35.544C90.3121 33.0045 89.898 30.9313 88.9151 29.4857L87.2612 30.6103C87.9102 31.5647 88.3121 33.1555 88.3121 35.544H90.3121ZM88.9202 29.4933C87.898 27.96 86.2944 27.248 84.3201 27.248V29.248C85.7699 29.248 86.6783 29.736 87.2561 30.6027L88.9202 29.4933ZM84.3201 27.248C82.3094 27.248 80.6724 27.9515 79.6292 29.4857L81.2831 30.6103C81.8718 29.7445 82.8108 29.248 84.3201 29.248V27.248ZM79.6292 29.4857C78.6462 30.9313 78.2321 33.0045 78.2321 35.544H80.2321C80.2321 33.1555 80.634 31.5647 81.2831 30.6103L79.6292 29.4857ZM78.2321 35.544C78.2321 38.0851 78.6468 40.1624 79.6258 41.6212L81.2865 40.5068C80.6334 39.5336 80.2321 37.9309 80.2321 35.544H78.2321ZM79.6292 41.6263C80.6724 43.1605 82.3094 43.864 84.3201 43.864V41.864C82.8108 41.864 81.8718 41.3675 81.2831 40.5017L79.6292 41.6263ZM123.343 23.112L124.275 23.4734L124.803 22.112H123.343V23.112ZM113.695 48V49H114.38L114.627 48.3614L113.695 48ZM106.927 48L105.995 48.3614L106.242 49H106.927V48ZM97.279 23.112V22.112H95.8188L96.3466 23.4734L97.279 23.112ZM104.791 23.496L104.203 24.3047L104.223 24.3197L104.245 24.3336L104.791 23.496ZM105.535 24.408L106.49 24.1122L106.485 24.0957L106.479 24.0795L105.535 24.408ZM108.991 35.568L108.036 35.8638L108.039 35.8741L108.042 35.8842L108.991 35.568ZM109.783 38.232L108.815 38.483L108.817 38.4913L108.819 38.4996L109.783 38.232ZM110.407 40.824L109.427 41.0236H111.387L110.407 40.824ZM111.871 35.568L112.814 35.8995L112.819 35.8873L112.823 35.875L111.871 35.568ZM115.471 24.408L114.527 24.0795L114.523 24.0902L114.519 24.101L115.471 24.408ZM116.191 23.496L116.754 24.3222L116.767 24.3137L116.779 24.3047L116.191 23.496ZM122.411 22.7506L112.763 47.6386L114.627 48.3614L124.275 23.4734L122.411 22.7506ZM113.695 47H106.927V49H113.695V47ZM107.859 47.6386L98.2114 22.7506L96.3466 23.4734L105.995 48.3614L107.859 47.6386ZM97.279 24.112H103.471V22.112H97.279V24.112ZM103.471 24.112C103.834 24.112 104.056 24.1976 104.203 24.3047L105.379 22.6873C104.822 22.2824 104.164 22.112 103.471 22.112V24.112ZM104.245 24.3336C104.452 24.4689 104.544 24.6041 104.59 24.7365L106.479 24.0795C106.27 23.4759 105.866 23.0031 105.337 22.6584L104.245 24.3336ZM104.58 24.7038L108.036 35.8638L109.946 35.2722L106.49 24.1122L104.58 24.7038ZM108.042 35.8842C108.34 36.7763 108.597 37.6425 108.815 38.483L110.751 37.981C110.521 37.0935 110.25 36.1837 109.94 35.2518L108.042 35.8842ZM108.819 38.4996C109.053 39.3415 109.256 40.1828 109.427 41.0236L111.387 40.6244C111.206 39.7371 110.993 38.8505 110.747 37.9644L108.819 38.4996ZM111.387 41.0236C111.729 39.3432 112.205 37.6353 112.814 35.8995L110.928 35.2365C110.289 37.0527 109.789 38.8488 109.427 40.6244L111.387 41.0236ZM112.823 35.875L116.423 24.715L114.519 24.101L110.919 35.261L112.823 35.875ZM116.415 24.7365C116.466 24.5901 116.562 24.4534 116.754 24.3222L115.628 22.6698C115.116 23.0186 114.732 23.4899 114.527 24.0795L116.415 24.7365ZM116.779 24.3047C116.943 24.1858 117.148 24.112 117.439 24.112V22.112C116.77 22.112 116.143 22.2942 115.603 22.6873L116.779 24.3047ZM117.439 24.112H123.343V22.112H117.439V24.112ZM133.378 23.112H134.378V22.112H133.378V23.112ZM133.378 48V49H134.378V48H133.378ZM125.938 48H124.938V49H125.938V48ZM125.938 23.112V22.112H124.938V23.112H125.938ZM133.786 17.976L134.692 18.4005L134.696 18.3898L133.786 17.976ZM132.802 19.344L133.48 20.0788L133.488 20.0719L133.495 20.0648L132.802 19.344ZM131.338 20.28L131.719 21.2047L131.725 21.202L131.732 21.1991L131.338 20.28ZM127.882 20.28L127.468 21.1904L127.48 21.1956L127.491 21.2006L127.882 20.28ZM126.466 19.344L125.759 20.0511L125.773 20.0652L125.788 20.0788L126.466 19.344ZM125.506 17.976L124.585 18.3665L124.593 18.3836L124.601 18.4004L125.506 17.976ZM125.506 14.592L124.596 14.1782L124.59 14.1898L124.585 14.2014L125.506 14.592ZM126.466 13.2L125.773 12.4792L125.766 12.486L125.759 12.4929L126.466 13.2ZM127.882 12.264L127.491 11.3434L127.491 11.3434L127.882 12.264ZM131.338 12.264L130.957 13.1887L130.967 13.1925L131.338 12.264ZM132.802 13.2L133.495 12.4792L132.802 13.2ZM133.786 14.592L132.876 15.0058L133.786 14.592ZM132.378 23.112V48H134.378V23.112H132.378ZM133.378 47H125.938V49H133.378V47ZM126.938 48V23.112H124.938V48H126.938ZM125.938 24.112H133.378V22.112H125.938V24.112ZM133.146 16.296C133.146 16.7483 133.055 17.1669 132.876 17.5622L134.696 18.3898C134.997 17.7291 135.146 17.0277 135.146 16.296H133.146ZM132.881 17.5516C132.694 17.9503 132.438 18.3063 132.109 18.6232L133.495 20.0648C133.998 19.5817 134.398 19.0257 134.691 18.4004L132.881 17.5516ZM132.124 18.6092C131.797 18.9103 131.407 19.1623 130.944 19.3609L131.732 21.1991C132.389 20.9177 132.975 20.5457 133.48 20.0788L132.124 18.6092ZM130.957 19.3553C130.541 19.5266 130.087 19.616 129.586 19.616V21.616C130.333 21.616 131.047 21.4814 131.719 21.2047L130.957 19.3553ZM129.586 19.616C129.104 19.616 128.67 19.5279 128.273 19.3594L127.491 21.2006C128.15 21.4801 128.852 21.616 129.586 21.616V19.616ZM128.296 19.3696C127.862 19.1726 127.48 18.9192 127.144 18.6092L125.788 20.0788C126.284 20.5368 126.846 20.9074 127.468 21.1904L128.296 19.3696ZM127.173 18.6369C126.855 18.3189 126.602 17.9585 126.411 17.5516L124.601 18.4004C124.89 19.0175 125.277 19.5691 125.759 20.0511L127.173 18.6369ZM126.427 17.5854C126.257 17.185 126.17 16.7582 126.17 16.296H124.17C124.17 17.0178 124.307 17.711 124.585 18.3665L126.427 17.5854ZM126.17 16.296C126.17 15.814 126.258 15.3797 126.427 14.9825L124.585 14.2014C124.306 14.8603 124.17 15.562 124.17 16.296H126.17ZM126.416 15.0058C126.608 14.5842 126.86 14.2202 127.173 13.9071L125.759 12.4929C125.272 12.9798 124.884 13.5438 124.596 14.1782L126.416 15.0058ZM127.159 13.9208C127.488 13.6048 127.857 13.3607 128.273 13.1846L127.491 11.3434C126.851 11.6153 126.276 11.9952 125.773 12.4792L127.159 13.9208ZM128.273 13.1846C128.67 13.0161 129.104 12.928 129.586 12.928V10.928C128.852 10.928 128.15 11.0639 127.491 11.3434L128.273 13.1846ZM129.586 12.928C130.087 12.928 130.541 13.0174 130.957 13.1887L131.719 11.3393C131.047 11.0626 130.333 10.928 129.586 10.928V12.928ZM130.967 13.1925C131.412 13.3708 131.79 13.6141 132.109 13.9208L133.495 12.4792C132.982 11.9859 132.384 11.6052 131.709 11.3355L130.967 13.1925ZM132.109 13.9208C132.433 14.2327 132.688 14.5924 132.876 15.0058L134.696 14.1782C134.404 13.5356 134.003 12.9673 133.495 12.4792L132.109 13.9208ZM132.876 15.0058C133.054 15.3976 133.146 15.8237 133.146 16.296H135.146C135.146 15.5523 134.998 14.8424 134.696 14.1782L132.876 15.0058ZM154.047 32.568V33.568H155.047V32.568H154.047ZM153.807 30.84L152.838 31.089L152.842 31.1019L152.845 31.1147L153.807 30.84ZM153.063 29.352L152.263 29.952L152.275 29.9681L152.288 29.9837L153.063 29.352ZM151.719 28.272L151.282 29.1715L151.719 28.272ZM146.367 29.088L147.074 29.7951L147.081 29.7881L146.367 29.088ZM144.783 32.568L143.797 32.4019L143.6 33.568H144.783V32.568ZM144.687 36.888V35.888H143.565L143.693 37.0026L144.687 36.888ZM146.583 41.424L145.905 42.1593L145.911 42.165L146.583 41.424ZM152.775 42.504L152.459 41.5553L152.775 42.504ZM154.431 41.808L153.972 40.9193L153.96 40.9256L154.431 41.808ZM155.775 41.112L155.328 40.2176L155.321 40.2211L155.314 40.2248L155.775 41.112ZM158.415 41.448L157.597 42.0235L157.617 42.0513L157.638 42.0778L158.415 41.448ZM160.575 44.112L161.328 44.7695L161.881 44.1357L161.352 43.4822L160.575 44.112ZM158.079 46.272L158.605 47.1226L158.609 47.12L158.079 46.272ZM155.343 47.568L155.654 48.5184L155.664 48.5151L155.343 47.568ZM152.535 48.192L152.417 47.199L152.408 47.2001L152.398 47.2014L152.535 48.192ZM144.951 47.544L144.596 48.4792L144.608 48.4835L144.951 47.544ZM140.943 45L140.241 45.7121L140.246 45.717L140.943 45ZM138.231 40.824L137.301 41.1908L137.304 41.1985L138.231 40.824ZM138.087 30.288L137.154 29.927L137.151 29.9358L138.087 30.288ZM140.535 26.376L139.812 25.6845L139.807 25.69L140.535 26.376ZM144.399 23.712L144.003 22.7938L143.999 22.7954L144.399 23.712ZM154.047 23.496L153.695 24.4319L153.698 24.4332L154.047 23.496ZM157.575 25.728L156.868 26.4351L156.874 26.4408L157.575 25.728ZM159.879 29.328L158.945 29.6849L158.95 29.6976L159.879 29.328ZM160.647 35.496L161.638 35.6311V35.6311L160.647 35.496ZM160.383 36.336L159.531 35.8119L160.383 36.336ZM159.855 36.768L159.519 35.8263L159.507 35.8303L159.496 35.8347L159.855 36.768ZM155.047 32.568C155.047 31.8846 154.954 31.2161 154.768 30.5653L152.845 31.1147C152.979 31.5839 153.047 32.0674 153.047 32.568H155.047ZM154.775 30.591C154.597 29.8964 154.285 29.2687 153.838 28.7203L152.288 29.9837C152.545 30.2993 152.729 30.6636 152.838 31.089L154.775 30.591ZM153.863 28.752C153.421 28.163 152.843 27.7061 152.156 27.3725L151.282 29.1715C151.715 29.3819 152.033 29.645 152.263 29.952L153.863 28.752ZM152.156 27.3725C151.427 27.0183 150.589 26.864 149.679 26.864V28.864C150.369 28.864 150.891 28.9817 151.282 29.1715L152.156 27.3725ZM149.679 26.864C148.069 26.864 146.683 27.3374 145.653 28.3879L147.081 29.7881C147.651 29.2066 148.473 28.864 149.679 28.864V26.864ZM145.66 28.3809C144.668 29.3726 144.075 30.7497 143.797 32.4019L145.769 32.7341C146.003 31.3463 146.466 30.4034 147.074 29.7951L145.66 28.3809ZM144.783 33.568H154.047V31.568H144.783V33.568ZM143.693 37.0026C143.948 39.2048 144.635 40.9883 145.905 42.1592L147.261 40.6888C146.483 39.9717 145.906 38.7312 145.68 36.7734L143.693 37.0026ZM145.911 42.165C147.15 43.2874 148.723 43.816 150.543 43.816V41.816C149.13 41.816 148.064 41.4166 147.254 40.683L145.911 42.165ZM150.543 43.816C151.483 43.816 152.339 43.7034 153.091 43.4527L152.459 41.5553C151.963 41.7206 151.331 41.816 150.543 41.816V43.816ZM153.091 43.4527C153.758 43.2305 154.363 42.9775 154.901 42.6904L153.96 40.9256C153.539 41.1505 153.04 41.3615 152.459 41.5553L153.091 43.4527ZM154.89 42.6966C155.386 42.4403 155.835 42.2078 156.236 41.9992L155.314 40.2248C154.915 40.4322 154.468 40.6637 153.972 40.9194L154.89 42.6966ZM156.222 42.0064C156.505 41.8651 156.784 41.8 157.071 41.8V39.8C156.462 39.8 155.877 39.9429 155.328 40.2176L156.222 42.0064ZM157.071 41.8C157.383 41.8 157.505 41.8929 157.597 42.0235L159.233 40.8725C158.717 40.1391 157.943 39.8 157.071 39.8V41.8ZM157.638 42.0778L159.798 44.7418L161.352 43.4822L159.192 40.8182L157.638 42.0778ZM159.821 43.4545C159.111 44.2681 158.353 44.9213 157.549 45.424L158.609 47.12C159.597 46.5027 160.502 45.7159 161.328 44.7695L159.821 43.4545ZM157.553 45.4214C156.735 45.9271 155.891 46.3261 155.022 46.6209L155.664 48.5151C156.682 48.1699 157.663 47.7049 158.605 47.1226L157.553 45.4214ZM155.032 46.6177C154.165 46.9016 153.294 47.095 152.417 47.199L152.653 49.185C153.664 49.065 154.665 48.8424 155.654 48.5183L155.032 46.6177ZM152.398 47.2014C151.511 47.3238 150.669 47.384 149.871 47.384V49.384C150.769 49.384 151.703 49.3162 152.672 49.1826L152.398 47.2014ZM149.871 47.384C148.236 47.384 146.713 47.1219 145.293 46.6045L144.608 48.4835C146.261 49.0861 148.018 49.384 149.871 49.384V47.384ZM145.305 46.6089C143.912 46.0808 142.693 45.3065 141.64 44.283L140.246 45.717C141.497 46.9335 142.95 47.8552 144.597 48.4791L145.305 46.6089ZM141.645 44.2879C140.618 43.2752 139.785 42.0026 139.158 40.4495L137.304 41.1985C138.02 42.9734 138.996 44.4848 140.241 45.7121L141.645 44.2879ZM139.161 40.4572C138.561 38.9339 138.247 37.1269 138.247 35.016H136.247C136.247 37.3211 136.589 39.3861 137.301 41.1908L139.161 40.4572ZM138.247 35.016C138.247 33.4666 138.507 32.0104 139.023 30.6402L137.151 29.9358C136.547 31.5416 136.247 33.2374 136.247 35.016H138.247ZM139.019 30.649C139.551 29.2771 140.298 28.0845 141.262 27.062L139.807 25.69C138.659 26.9075 137.775 28.3229 137.154 29.927L139.019 30.649ZM141.257 27.0675C142.232 26.0486 143.409 25.2348 144.799 24.6286L143.999 22.7954C142.381 23.5012 140.981 24.4634 139.812 25.6845L141.257 27.0675ZM144.795 24.6301C146.173 24.0357 147.747 23.728 149.535 23.728V21.728C147.515 21.728 145.665 22.0763 144.003 22.7939L144.795 24.6301ZM149.535 23.728C151.079 23.728 152.461 23.9676 153.695 24.4319L154.399 22.5601C152.913 22.0004 151.287 21.728 149.535 21.728V23.728ZM153.698 24.4332C154.948 24.8984 156 25.567 156.868 26.4351L158.282 25.0209C157.198 23.937 155.897 23.1176 154.396 22.5588L153.698 24.4332ZM156.874 26.4408C157.754 27.307 158.447 28.3819 158.945 29.6849L160.813 28.9711C160.223 27.4261 159.38 26.101 158.276 25.0152L156.874 26.4408ZM158.95 29.6976C159.455 30.9686 159.719 32.4399 159.719 34.128H161.719C161.719 32.2321 161.423 30.5034 160.808 28.9584L158.95 29.6976ZM159.719 34.128C159.719 34.6654 159.696 35.0715 159.656 35.3609L161.638 35.6311C161.694 35.2165 161.719 34.7106 161.719 34.128H159.719ZM159.656 35.3609C159.619 35.6326 159.561 35.7636 159.531 35.8119L161.235 36.8601C161.461 36.4924 161.579 36.0634 161.638 35.6311L159.656 35.3609ZM159.531 35.8119C159.526 35.8205 159.522 35.8249 159.521 35.8264C159.52 35.8278 159.52 35.8273 159.522 35.826C159.523 35.8247 159.525 35.8238 159.525 35.8235C159.526 35.8232 159.524 35.8243 159.519 35.8263L160.191 37.7097C160.636 37.551 160.991 37.2563 161.235 36.8601L159.531 35.8119ZM159.496 35.8347C159.445 35.8542 159.308 35.888 159.039 35.888V37.888C159.442 37.888 159.849 37.8418 160.214 37.7013L159.496 35.8347ZM159.039 35.888H144.687V37.888H159.039V35.888ZM180.258 28.56L179.416 28.0196L179.412 28.026L180.258 28.56ZM179.634 29.208L179.138 28.3398L179.124 28.3478L179.11 28.3563L179.634 29.208ZM177.762 29.184L177.348 30.0944L177.366 30.1023L177.383 30.1095L177.762 29.184ZM176.61 28.68L176.207 29.5953L176.214 29.5982L176.22 29.601L176.61 28.68ZM175.242 28.2L174.944 29.1545L174.957 29.1588L174.971 29.1626L175.242 28.2ZM171.306 28.512L171.885 29.3275L171.89 29.324L171.306 28.512ZM171.042 31.152L170.353 31.877L170.362 31.8854L170.371 31.8935L171.042 31.152ZM172.362 31.968L171.958 32.8829L171.97 32.8879L171.981 32.8927L172.362 31.968ZM174.21 32.616L174.499 31.6588L174.21 32.616ZM176.322 33.312L176.657 32.3698L176.322 33.312ZM178.434 34.224L177.978 35.1142L177.987 35.1185L177.995 35.1226L178.434 34.224ZM180.282 35.496L179.597 36.2242L179.602 36.2296L179.608 36.235L180.282 35.496ZM181.578 37.32L180.664 37.7261L180.668 37.7345L180.672 37.7429L181.578 37.32ZM181.41 43.32L182.328 43.7156L181.41 43.32ZM179.394 46.008L178.751 45.242L178.744 45.2478L179.394 46.008ZM176.106 47.76L175.804 46.8068L175.8 46.8078L176.106 47.76ZM169.074 48.144L169.259 47.1613L169.074 48.144ZM166.602 47.496L166.274 48.4408L166.28 48.4428L166.602 47.496ZM164.418 46.536L163.922 47.4042L163.93 47.4087L163.938 47.4131L164.418 46.536ZM162.69 45.312L161.844 44.778L161.394 45.4911L162.021 46.0553L162.69 45.312ZM164.418 42.576L165.263 43.11L165.269 43.1003L165.275 43.0905L164.418 42.576ZM165.138 41.832L165.659 42.6853L165.666 42.6814L165.672 42.6775L165.138 41.832ZM167.442 41.832L166.946 42.7002L166.954 42.7052L166.963 42.7099L167.442 41.832ZM169.962 43.08L169.62 44.0198L169.629 44.023L169.962 43.08ZM173.466 43.2L173.736 44.163L173.753 44.158L173.771 44.1524L173.466 43.2ZM174.426 42.696L173.771 41.9403L174.426 42.696ZM174.954 42L175.87 42.4008L175.87 42.4008L174.954 42ZM174.618 39.984L175.308 39.2599L174.618 39.984ZM173.298 39.168L172.894 40.0829L172.906 40.0879L172.917 40.0927L173.298 39.168ZM171.426 38.52L171.136 39.4772L171.15 39.4812L171.163 39.4848L171.426 38.52ZM169.314 37.824L169.649 36.8818L169.314 37.824ZM167.178 36.912L166.706 37.7938L166.718 37.8003L166.731 37.8064L167.178 36.912ZM165.33 35.544L164.613 36.2408L164.618 36.246L164.623 36.2511L165.33 35.544ZM164.01 33.504L164.932 33.1168L164.01 33.504ZM164.106 27.6L163.188 27.2024L163.185 27.2099L164.106 27.6ZM165.954 25.08L165.292 24.3302V24.3302L165.954 25.08ZM169.026 23.376L169.346 24.3235L169.357 24.3197L169.026 23.376ZM175.938 22.968L175.749 23.95L175.752 23.9507L175.938 22.968ZM178.314 23.64L178.678 22.7088L178.678 22.7088L178.314 23.64ZM180.33 24.672L179.78 25.5074L179.788 25.5125L179.796 25.5175L180.33 24.672ZM181.938 25.944L182.779 26.4844L183.215 25.8065L182.645 25.2369L181.938 25.944ZM179.412 28.026C179.275 28.2432 179.175 28.3185 179.138 28.3398L180.13 30.0762C180.541 29.8415 180.857 29.4848 181.103 29.094L179.412 28.026ZM179.11 28.3563C179.108 28.3574 179.036 28.4 178.818 28.4V30.4C179.272 30.4 179.744 30.3146 180.158 30.0597L179.11 28.3563ZM178.818 28.4C178.606 28.4 178.382 28.3573 178.141 28.2585L177.383 30.1095C177.846 30.2987 178.326 30.4 178.818 30.4V28.4ZM178.176 28.2736C177.814 28.1094 177.422 27.9379 177 27.759L176.22 29.601C176.629 29.7741 177.005 29.9385 177.348 30.0944L178.176 28.2736ZM177.013 27.7647C176.562 27.5663 176.06 27.3914 175.513 27.2373L174.971 29.1626C175.447 29.2966 175.858 29.4417 176.207 29.5953L177.013 27.7647ZM175.54 27.2455C174.913 27.0495 174.225 26.96 173.49 26.96V28.96C174.066 28.96 174.547 29.0305 174.944 29.1545L175.54 27.2455ZM173.49 26.96C172.435 26.96 171.47 27.1626 170.722 27.7L171.89 29.324C172.166 29.1254 172.657 28.96 173.49 28.96V26.96ZM170.727 27.6965C169.951 28.2473 169.562 29.056 169.562 30H171.562C171.562 29.664 171.669 29.4807 171.885 29.3275L170.727 27.6965ZM169.562 30C169.562 30.7224 169.823 31.3736 170.353 31.877L171.731 30.427C171.62 30.3224 171.562 30.2056 171.562 30H169.562ZM170.371 31.8935C170.807 32.2876 171.345 32.6125 171.958 32.8829L172.766 31.0531C172.291 30.8435 171.949 30.6244 171.713 30.4105L170.371 31.8935ZM171.981 32.8927C172.561 33.1313 173.208 33.3578 173.92 33.5732L174.499 31.6588C173.836 31.4582 173.251 31.2527 172.743 31.0433L171.981 32.8927ZM173.92 33.5732C174.592 33.7763 175.281 34.0032 175.987 34.2542L176.657 32.3698C175.923 32.1088 175.204 31.8717 174.499 31.6588L173.92 33.5732ZM175.987 34.2542C176.665 34.4954 177.329 34.782 177.978 35.1142L178.889 33.3338C178.163 32.962 177.419 32.6406 176.657 32.3698L175.987 34.2542ZM177.995 35.1226C178.595 35.4156 179.127 35.7828 179.597 36.2242L180.967 34.7678C180.348 34.1852 179.649 33.7044 178.873 33.3254L177.995 35.1226ZM179.608 36.235C180.043 36.6314 180.396 37.1235 180.664 37.7261L182.492 36.9139C182.12 36.0765 181.609 35.3526 180.956 34.757L179.608 36.235ZM180.672 37.7429C180.932 38.2999 181.082 39.0121 181.082 39.912H183.082C183.082 38.7959 182.896 37.7801 182.484 36.8971L180.672 37.7429ZM181.082 39.912C181.082 41.02 180.881 42.02 180.491 42.9244L182.328 43.7156C182.835 42.54 183.082 41.268 183.082 39.912H181.082ZM180.491 42.9244C180.107 43.8163 179.532 44.5869 178.751 45.242L180.037 46.774C181.048 45.9251 181.817 44.9037 182.328 43.7156L180.491 42.9244ZM178.744 45.2478C177.983 45.898 177.012 46.4237 175.804 46.8068L176.408 48.7132C177.824 48.2643 179.044 47.622 180.044 46.7682L178.744 45.2478ZM175.8 46.8078C174.624 47.1855 173.235 47.384 171.618 47.384V49.384C173.393 49.384 174.996 49.1665 176.411 48.7122L175.8 46.8078ZM171.618 47.384C170.833 47.384 170.047 47.31 169.259 47.1613L168.888 49.1267C169.797 49.298 170.707 49.384 171.618 49.384V47.384ZM169.259 47.1613C168.457 47.0099 167.678 46.8057 166.924 46.5492L166.28 48.4428C167.126 48.7303 167.995 48.9581 168.888 49.1267L169.259 47.1613ZM166.93 46.5512C166.194 46.296 165.517 45.998 164.898 45.6589L163.938 47.4131C164.662 47.81 165.442 48.152 166.274 48.4408L166.93 46.5512ZM164.914 45.6678C164.292 45.3124 163.777 44.9447 163.359 44.5687L162.021 46.0553C162.563 46.5433 163.2 46.9916 163.922 47.4042L164.914 45.6678ZM163.535 45.846L165.263 43.11L163.572 42.042L161.844 44.778L163.535 45.846ZM165.275 43.0905C165.393 42.894 165.523 42.7685 165.659 42.6853L164.616 40.9787C164.177 41.2475 163.826 41.618 163.56 42.0615L165.275 43.0905ZM165.672 42.6775C165.776 42.6119 165.961 42.544 166.29 42.544V40.544C165.691 40.544 165.108 40.6681 164.604 40.9865L165.672 42.6775ZM166.29 42.544C166.569 42.544 166.778 42.6043 166.946 42.7002L167.938 40.9638C167.434 40.6757 166.875 40.544 166.29 40.544V42.544ZM166.963 42.7099C167.311 42.8999 167.684 43.1061 168.081 43.3285L169.058 41.5835C168.656 41.3579 168.276 41.1481 167.921 40.9541L166.963 42.7099ZM168.081 43.3285C168.537 43.584 169.052 43.8133 169.62 44.0198L170.304 42.1402C169.815 41.9627 169.402 41.776 169.058 41.5835L168.081 43.3285ZM169.629 44.023C170.314 44.2648 171.116 44.368 172.002 44.368V42.368C171.256 42.368 170.698 42.2792 170.295 42.137L169.629 44.023ZM172.002 44.368C172.637 44.368 173.221 44.307 173.736 44.163L173.196 42.237C172.911 42.317 172.519 42.368 172.002 42.368V44.368ZM173.771 44.1524C174.26 43.9958 174.711 43.7719 175.081 43.4517L173.771 41.9403C173.66 42.0361 173.472 42.1482 173.161 42.2476L173.771 44.1524ZM175.081 43.4517C175.418 43.1596 175.691 42.8106 175.87 42.4008L174.038 41.5992C173.993 41.7014 173.914 41.8164 173.771 41.9403L175.081 43.4517ZM175.87 42.4008C176.036 42.022 176.122 41.6218 176.122 41.208H174.122C174.122 41.3382 174.096 41.466 174.038 41.5992L175.87 42.4008ZM176.122 41.208C176.122 40.4594 175.856 39.7827 175.308 39.2599L173.928 40.7081C174.051 40.8253 174.122 40.9646 174.122 41.208H176.122ZM175.308 39.2599C174.861 38.835 174.308 38.5024 173.679 38.2433L172.917 40.0927C173.376 40.2816 173.702 40.493 173.928 40.7081L175.308 39.2599ZM173.702 38.2531C173.103 37.9891 172.431 37.7575 171.689 37.5552L171.163 39.4848C171.829 39.6665 172.405 39.8669 172.894 40.0829L173.702 38.2531ZM171.715 37.5628C171.044 37.3597 170.355 37.1328 169.649 36.8818L168.979 38.7662C169.713 39.0272 170.432 39.2643 171.136 39.4772L171.715 37.5628ZM169.649 36.8818C168.968 36.6398 168.294 36.3519 167.625 36.0176L166.731 37.8064C167.47 38.1761 168.219 38.4962 168.979 38.7662L169.649 36.8818ZM167.65 36.0302C167.047 35.7079 166.511 35.3104 166.037 34.8369L164.623 36.2511C165.237 36.8656 165.933 37.3801 166.706 37.7938L167.65 36.0302ZM166.047 34.8472C165.599 34.3862 165.225 33.8145 164.932 33.1168L163.088 33.8912C163.467 34.7935 163.972 35.5818 164.613 36.2408L166.047 34.8472ZM164.932 33.1168C164.661 32.4709 164.506 31.6422 164.506 30.6H162.506C162.506 31.8298 162.687 32.9371 163.088 33.8912L164.932 33.1168ZM164.506 30.6C164.506 29.6739 164.681 28.807 165.027 27.9901L163.185 27.2099C162.731 28.281 162.506 29.4141 162.506 30.6H164.506ZM165.023 27.9976C165.379 27.1778 165.905 26.4567 166.615 25.8298L165.292 24.3302C164.371 25.1433 163.665 26.1022 163.188 27.2024L165.023 27.9976ZM166.615 25.8298C167.314 25.2131 168.216 24.7051 169.346 24.3234L168.706 22.4286C167.372 22.8789 166.225 23.5069 165.292 24.3302L166.615 25.8298ZM169.357 24.3197C170.459 23.9333 171.782 23.728 173.346 23.728V21.728C171.613 21.728 170.057 21.9547 168.695 22.4323L169.357 24.3197ZM173.346 23.728C174.182 23.728 174.983 23.8026 175.749 23.95L176.127 21.986C175.229 21.8134 174.302 21.728 173.346 21.728V23.728ZM175.752 23.9507C176.545 24.1002 177.276 24.3079 177.949 24.5712L178.678 22.7088C177.879 22.3961 177.027 22.1558 176.123 21.9853L175.752 23.9507ZM177.949 24.5712C178.626 24.836 179.235 25.1488 179.78 25.5074L180.879 23.8366C180.209 23.3952 179.474 23.02 178.678 22.7088L177.949 24.5712ZM179.796 25.5175C180.347 25.8657 180.824 26.2442 181.231 26.6511L182.645 25.2369C182.124 24.7158 181.529 24.2463 180.864 23.8265L179.796 25.5175ZM181.096 25.4036L179.416 28.0196L181.099 29.1004L182.779 26.4844L181.096 25.4036Z" fill="white"/>
<path d="M23.46 34.62C25.04 32.48 26 29.86 26 27C26 19.82 20.18 14 13 14C5.82 14 0 19.82 0 27C0 34.18 5.82 40 13 40C15.86 40 18.48 39.04 20.62 37.46L33.18 50L36 47.18L23.46 34.62ZM13 36C8.02 36 4 31.98 4 27C4 22.02 8.02 18 13 18C17.98 18 22 22.02 22 27C22 31.98 17.98 36 13 36Z" fill="white"/>
<path d="M14.58 24.88L13 20L11.42 24.88H6.5L10.52 28.06L8.98 33L13 29.94L17.02 33L15.48 28.06L19.5 24.88H14.58Z" fill="white"/>
<defs>
<filter id="filter0_i_3_26" x="28.384" y="11.928" width="153.698" height="40.456" filterUnits="userSpaceOnUse" color-interpolation-filters="sRGB">
<feFlood flood-opacity="0" result="BackgroundImageFix"/>
<feBlend mode="normal" in="SourceGraphic" in2="BackgroundImageFix" result="shape"/>
<feColorMatrix in="SourceAlpha" type="matrix" values="0 0 0 0 0 0 0 0 0 0 0 0 0 0 0 0 0 0 127 0" result="hardAlpha"/>
<feOffset dy="4"/>
<feGaussianBlur stdDeviation="2"/>
<feComposite in2="hardAlpha" operator="arithmetic" k2="-1" k3="1"/>
<feColorMatrix type="matrix" values="0 0 0 0 0 0 0 0 0 0 0 0 0 0 0 0 0 0 0.25 0"/>
<feBlend mode="normal" in2="shape" result="effect1_innerShadow_3_26"/>
</filter>
</defs>
</svg>
